<?xml version="1.0" encoding="UTF-8" standalone="no"?>
<svg width="34px" height="30px" viewBox="0 0 34 30" version="1.1" xmlns="http://www.w3.org/2000/svg" xmlns:xlink="http://www.w3.org/1999/xlink">
    <!-- Generator: Sketch 40.3 (33839) - http://www.bohemiancoding.com/sketch -->
    <title>icon_twitter</title>
    <desc>Created with Sketch.</desc>
    <defs></defs>
    <g id="Page-1" stroke="none" stroke-width="1" fill="none" fill-rule="evenodd">
        <g id="Project--Rather-Be" transform="translate(-1199.000000, -104.000000)" fill="#FFFFFF">
            <g id="icon_twitter" transform="translate(1199.000000, 104.000000)">
                <path d="M23.9982462,1.91896552 C25.9210769,1.91896552 27.6545538,2.72017241 28.8738462,4.00448276 C29.8844308,4.03034483 29.9911385,4.03965517 30.4796923,4.03965517 C30.7736615,4.03965517 31.2057231,4.03603448 32.0546769,4.03034483 C31.5159077,5.90172414 31.3720615,6.28603448 30.6810769,8.43465517 C30.6936308,8.71810345 30.7004308,9.00206897 30.7004308,9.28913793 C30.7004308,18.0160345 23.9820308,28.08 11.6970462,28.08 C5.81452308,28.08 2.51286154,25.2046552 3.05163077,25.2046552 C6.18067692,25.2046552 9.06178462,24.15 11.3476308,22.377931 C8.42467692,22.3241379 -2.21523077,15.6408621 3.72483077,3.12775862 C7.01969231,7.12293103 11.9413231,9.75206897 17.4927385,10.0272414 C17.3776615,9.54413793 17.3190769,9.04086207 17.3190769,8.52206897 C17.3190769,4.87551724 20.3095077,1.91896552 23.9982462,1.91896552 L23.9982462,1.91896552 Z M32.0546769,4.03086207 L32.0572923,4.03086207 L32.0546769,4.03086207 Z M23.9982462,0.367241379 C19.5280308,0.367241379 15.8774769,3.90155172 15.7535077,8.29189655 C11.5380308,7.63655172 7.66987692,5.45637931 4.94150769,2.14758621 C4.64178462,1.78396552 4.19350769,1.57655172 3.72587692,1.57655172 C3.66206154,1.57655172 3.59772308,1.58017241 3.53390769,1.58793103 C2.99827692,1.65310345 2.53430769,1.98568966 2.3052,2.4687931 C-1.02627692,9.4862069 0.577476923,14.6182759 2.50972308,17.6875862 C3.90476923,19.9044828 5.8616,21.6439655 7.72166154,22.7177586 C6.2628,23.3348276 4.68624615,23.6539655 3.05267692,23.6539655 C2.15612308,23.6539655 1.42643077,24.3687931 1.42643077,25.247069 C1.42643077,26.7744828 3.8556,27.8555172 4.65329231,28.2108621 C6.11006154,28.8594828 8.51464615,29.6322414 11.6980923,29.6322414 C19.4333538,29.6322414 24.2801846,26.0167241 26.9839692,22.9836207 C30.3442154,19.2144828 32.2707077,14.2231034 32.2707077,9.28965517 C32.2707077,9.07758621 32.2670462,8.86293103 32.2602462,8.64724138 C32.3753231,8.29137931 32.4736615,7.98724138 32.5615385,7.71568966 C32.9501846,6.51568966 33.1311692,5.95862069 33.5454462,4.52172414 C33.5977538,4.36758621 33.626,4.20206897 33.626,4.03034483 C33.626,3.17327586 32.9245538,2.47862069 32.0583385,2.47862069 L32.0552,2.47862069 L32.0447385,2.47862069 L31.5389231,2.48275862 C31.0158462,2.48637931 30.7061846,2.48844828 30.4802154,2.48844828 C30.1653231,2.48844828 30.0178154,2.48431034 29.6558462,2.47396552 L29.5308308,2.47034483 C28.0222769,1.12706897 26.0419077,0.367241379 23.9982462,0.367241379 L23.9982462,0.367241379 L23.9982462,0.367241379 Z" id="Shape"></path>
            </g>
        </g>
    </g>
</svg>