<?xml version="1.0" encoding="UTF-8" standalone="no"?>
<svg width="30px" height="30px" viewBox="0 0 30 30" version="1.1" xmlns="http://www.w3.org/2000/svg" xmlns:xlink="http://www.w3.org/1999/xlink">
    <!-- Generator: Sketch 40.3 (33839) - http://www.bohemiancoding.com/sketch -->
    <title>icon_instagram</title>
    <desc>Created with Sketch.</desc>
    <defs></defs>
    <g id="Page-1" stroke="none" stroke-width="1" fill="none" fill-rule="evenodd">
        <g id="Project--Rather-Be" transform="translate(-1331.000000, -104.000000)" fill="#FFFFFF">
            <g id="icon_instagram" transform="translate(1331.000000, 104.000000)">
                <g id="Group">
                    <path d="M6.67125,0.34078125 C3.18046875,0.34078125 0.34078125,3.1809375 0.34078125,6.67125 L0.34078125,23.3292187 C0.34078125,26.8195312 3.1809375,29.6596875 6.67125,29.6596875 L23.32875,29.6596875 C26.8195312,29.6596875 29.6596875,26.8195312 29.6596875,23.3292187 L29.6596875,6.67078125 C29.6592187,3.18046875 26.8195312,0.34078125 23.32875,0.34078125 L6.67125,0.34078125 Z M20.1660938,5.02875 C20.1660938,4.460625 20.6310938,3.995625 21.1996875,3.995625 L24.3,3.995625 C24.8685938,3.995625 25.3335938,4.460625 25.3335938,5.02875 L25.3335938,8.12953125 C25.3335938,8.69765625 24.8685938,9.16265625 24.3,9.16265625 L21.1996875,9.16265625 C20.6310938,9.16265625 20.1660938,8.69765625 20.1660938,8.12953125 L20.1660938,5.02875 L20.1660938,5.02875 Z M23.32875,28.1034375 L6.67125,28.1034375 C4.03875,28.1034375 1.8965625,25.9617188 1.8965625,23.32875 L1.8965625,10.9284375 L8.72390625,10.9284375 C10.2075,9.106875 12.4673438,7.9434375 14.9995313,7.9434375 C17.5317188,7.9434375 19.7920313,9.106875 21.275625,10.9284375 L28.1025,10.9284375 L28.1025,23.32875 C28.1029688,25.9617188 25.9617188,28.1034375 23.32875,28.1034375 L23.32875,28.1034375 Z" id="Shape"></path>
                    <ellipse id="Oval" cx="15" cy="15.6257813" rx="6.7434375" ry="6.7434375"></ellipse>
                </g>
            </g>
        </g>
    </g>
</svg>